<?xml version="1.0" encoding="utf-8"?>
<!-- Generator: Adobe Illustrator 16.0.0, SVG Export Plug-In . SVG Version: 6.00 Build 0)  -->
<!DOCTYPE svg PUBLIC "-//W3C//DTD SVG 1.1//EN" "http://www.w3.org/Graphics/SVG/1.1/DTD/svg11.dtd">
<svg version="1.1" id="Layer_1" xmlns="http://www.w3.org/2000/svg" xmlns:xlink="http://www.w3.org/1999/xlink" x="0px" y="0px"
	 width="509px" height="88px" viewBox="0 0 509 88" enable-background="new 0 0 509 88" xml:space="preserve">
<path d="M515-212H-6v521h521V-212z M34,88H0V0h11v78h23V88z M80,88H69V0h11V88z M158,88h-10.335l-21.664-57v57H115V0h9.482L147,57V0
	h11V88z M232,31l-10.001,0L222,19c0-5.74-2.793-9-9-9c-6.328,0-9.001,5.773-9.001,11L204,68.994c0,5.357,2.671,9.006,8.999,9.006
	c6.206,0,9.001-4.131,9.001-10V57h10v11c0,11.097-6.08,20-19,20c-12.912,0-20-8.776-20-20V21c0-11.1,7.088-21,20-21
	c12.92,0,19,7.904,19,19V31z M309,88h-11V49h-20v39h-11V0h11v38.947h20V0h11V88z M355,88h-11V0h11V88z M385,33.912
	C385,46.02,378.258,52,367,52h-3V42h3c4.635,0,7-2.626,7-7.548V18c0-5.057-2.365-8-7-8h-3V0h3c11.258,0,18,5.985,18,18.219V33.912z
	 M431,88h-11V0h11V88z M498.665,88L477,31v57h-11V0h9.482L498,57V0h11v88H498.665z"/>
</svg>
