<?xml version="1.0" encoding="utf-8"?>
<!-- Generator: Adobe Illustrator 16.0.0, SVG Export Plug-In . SVG Version: 6.00 Build 0)  -->
<!DOCTYPE svg PUBLIC "-//W3C//DTD SVG 1.1//EN" "http://www.w3.org/Graphics/SVG/1.1/DTD/svg11.dtd">
<svg version="1.1" id="Layer_1" xmlns="http://www.w3.org/2000/svg" xmlns:xlink="http://www.w3.org/1999/xlink" x="0px" y="0px"
	 width="50px" height="50px" viewBox="0 0 50 50" enable-background="new 0 0 50 50" xml:space="preserve">
<g>
	<rect x="32.046" y="30.142" transform="matrix(-0.7069 -0.7073 0.7073 -0.7069 33.2407 81.5575)" width="2.942" height="7.5"/>
	<rect x="14.635" y="12.736" transform="matrix(0.7074 0.7068 -0.7068 0.7074 16.3641 -6.562)" width="2.946" height="7.498"/>
	<path d="M39.143,10.857c-7.811-7.811-20.474-7.811-28.285,0c-7.811,7.812-7.811,20.475,0,28.285
		c7.812,7.811,20.475,7.811,28.285-0.001C46.953,31.332,46.953,18.67,39.143,10.857z M37.751,37.751
		c-5.65,5.654-14.155,6.758-20.926,3.319l4.729-4.73l3.222,3.221l11.759-11.758l-3.218-3.22l-8.479,8.478l-4.207-4.209l7.348-7.348
		l-3.197-3.195L14.151,28.938l3.221,3.222l-5.351,5.352c-6.799-7.048-6.727-18.309,0.228-25.262
		c5.654-5.656,14.159-6.76,20.933-3.317l-5.111,5.109L24.85,10.82L13.092,22.58l3.21,3.211l8.478-8.477l4.19,4.19l-7.351,7.353
		l3.215,3.215l10.634-10.634l-3.215-3.215l5.729-5.73C44.777,19.541,44.704,30.801,37.751,37.751z"/>
</g>
</svg>
