<?xml version="1.0" encoding="utf-8"?>
<!-- Generator: Adobe Illustrator 16.0.0, SVG Export Plug-In . SVG Version: 6.00 Build 0)  -->
<!DOCTYPE svg PUBLIC "-//W3C//DTD SVG 1.1//EN" "http://www.w3.org/Graphics/SVG/1.1/DTD/svg11.dtd">
<svg version="1.1" id="Layer_1" xmlns="http://www.w3.org/2000/svg" xmlns:xlink="http://www.w3.org/1999/xlink" x="0px" y="0px"
	 width="50px" height="50px" viewBox="0 0 50 50" enable-background="new 0 0 50 50" xml:space="preserve">
<g>
	<path d="M32.253,18.224l3.215,3.215L24.834,32.072l-3.215-3.214l7.351-7.353l-4.19-4.19l-8.478,8.477l-3.21-3.211L24.85,10.82
		l3.221,3.221l5.111-5.11c-6.773-3.44-15.278-2.337-20.933,3.318c-6.954,6.953-7.026,18.214-0.228,25.262l5.351-5.352l-3.221-3.222
		L24.78,18.309l3.197,3.195l-7.348,7.348l4.207,4.209l8.479-8.478l3.218,3.22L24.775,39.561l-3.222-3.221l-4.729,4.73
		c6.771,3.438,15.275,2.334,20.926-3.319c6.953-6.951,7.026-18.209,0.231-25.258L32.253,18.224z M17.717,12.793l2.084,2.082
		l-5.303,5.302l-2.082-2.081L17.717,12.793z M31.905,37.584l-2.08-2.081l5.301-5.303l2.083,2.081L31.905,37.584z"/>
	<path d="M0,0v50h50V0H0z M39.143,39.142c-7.811,7.811-20.474,7.811-28.285,0.001c-7.811-7.81-7.811-20.473,0-28.285
		c7.812-7.81,20.475-7.81,28.285,0C46.953,18.67,46.953,31.333,39.143,39.142z"/>
</g>
</svg>
