<?xml version="1.0" encoding="utf-8"?>
<!-- Generator: Adobe Illustrator 16.0.0, SVG Export Plug-In . SVG Version: 6.00 Build 0)  -->
<!DOCTYPE svg PUBLIC "-//W3C//DTD SVG 1.1//EN" "http://www.w3.org/Graphics/SVG/1.1/DTD/svg11.dtd">
<svg version="1.1" id="Layer_1" xmlns="http://www.w3.org/2000/svg" xmlns:xlink="http://www.w3.org/1999/xlink" x="0px" y="0px"
	 width="509px" height="88px" viewBox="0 0 509 88" enable-background="new 0 0 509 88" xml:space="preserve">
<g>
	<path fill="#010101" d="M0,88V0h11v78h23v10H0z"/>
	<path fill="#010101" d="M344,88V0h11v88H344z"/>
	<path fill="#010101" d="M213,88c-12.913,0-20-8.776-20-20V21c0-11.1,7.088-21,20-21c12.919,0,19,7.904,19,19v12l-10.001,0l0-12
		c0-5.74-2.793-9-9-9c-6.328,0-9.001,5.773-9.001,11l0,47.994c0,5.357,2.671,9.006,9,9.006c6.207,0,9-4.131,9-10V57h10v11
		C232,79.097,225.919,88,213,88z"/>
	<path fill="#010101" d="M298,88V49h-20v39h-11V0h11v38.947h20V0h11v88H298z"/>
	<path fill="#010101" d="M420,88V0h11v88H420z"/>
	<path fill="#010101" d="M498.665,88L477,31v57h-11V0h9.481L498,57V0h11v88H498.665z"/>
	<g>
		<path fill="#010101" d="M367,0h-3v10h3c4.634,0,7,2.943,7,8v16.452c0,4.921-2.365,7.548-7,7.548h-3v10h3
			c11.258,0,18-5.98,18-18.088V18.219C385,5.985,378.258,0,367,0z"/>
	</g>
	<path d="M69,88V0h11v88H69z"/>
	<path d="M147.665,88l-21.664-57v57h-11V0h9.481L147,57l0-57h11l0,88H147.665z"/>
</g>
</svg>
